<mxfile host="www.draw.io" modified="2019-11-27T08:47:59.180Z" agent="Mozilla/5.0 (Macintosh; Intel Mac OS X 10_13_6) AppleWebKit/537.36 (KHTML, like Gecko) Chrome/78.0.3904.108 Safari/537.36" etag="TOpngYVpN5UsoKfD8ijY" version="12.3.1" type="github" pages="1">
  <diagram id="gXM3Ycw-fR02b8TOL5E9" name="Page-1">
    <mxGraphModel dx="772" dy="405" grid="1" gridSize="10" guides="1" tooltips="1" connect="1" arrows="1" fold="1" page="1" pageScale="1" pageWidth="3300" pageHeight="4681" math="0" shadow="0">
      <root>
        <mxCell id="0"/>
        <mxCell id="1" parent="0"/>
        <mxCell id="KGu_Q4hgnfblnTcpn7K5-1" value="" style="endArrow=none;html=1;" parent="1" edge="1">
          <mxGeometry width="50" height="50" relative="1" as="geometry">
            <mxPoint x="80" y="356" as="sourcePoint"/>
            <mxPoint x="680" y="356" as="targetPoint"/>
          </mxGeometry>
        </mxCell>
        <mxCell id="KGu_Q4hgnfblnTcpn7K5-2" value="" style="endArrow=none;html=1;" parent="1" edge="1">
          <mxGeometry width="50" height="50" relative="1" as="geometry">
            <mxPoint x="80" y="424" as="sourcePoint"/>
            <mxPoint x="680" y="424" as="targetPoint"/>
          </mxGeometry>
        </mxCell>
        <mxCell id="KGu_Q4hgnfblnTcpn7K5-3" value="xlog 1" style="rounded=1;whiteSpace=wrap;html=1;" parent="1" vertex="1">
          <mxGeometry x="80" y="360" width="120" height="60" as="geometry"/>
        </mxCell>
        <mxCell id="KGu_Q4hgnfblnTcpn7K5-4" value="xlog 2" style="rounded=1;whiteSpace=wrap;html=1;" parent="1" vertex="1">
          <mxGeometry x="200" y="360" width="120" height="60" as="geometry"/>
        </mxCell>
        <mxCell id="KGu_Q4hgnfblnTcpn7K5-9" value="page 1 (dirty)&lt;br&gt;recorded by xlog1" style="rounded=0;whiteSpace=wrap;html=1;" parent="1" vertex="1">
          <mxGeometry x="80" y="280" width="120" height="40" as="geometry"/>
        </mxCell>
        <mxCell id="KGu_Q4hgnfblnTcpn7K5-10" value="page 2 (dirty)&lt;br&gt;recorded by xlog2" style="rounded=0;whiteSpace=wrap;html=1;" parent="1" vertex="1">
          <mxGeometry x="210" y="280" width="120" height="40" as="geometry"/>
        </mxCell>
        <mxCell id="KGu_Q4hgnfblnTcpn7K5-11" value="" style="endArrow=none;html=1;" parent="1" edge="1">
          <mxGeometry width="50" height="50" relative="1" as="geometry">
            <mxPoint x="90" y="570" as="sourcePoint"/>
            <mxPoint x="690" y="570" as="targetPoint"/>
          </mxGeometry>
        </mxCell>
        <mxCell id="KGu_Q4hgnfblnTcpn7K5-12" value="" style="endArrow=none;html=1;" parent="1" edge="1">
          <mxGeometry width="50" height="50" relative="1" as="geometry">
            <mxPoint x="90" y="638" as="sourcePoint"/>
            <mxPoint x="690" y="638" as="targetPoint"/>
          </mxGeometry>
        </mxCell>
        <mxCell id="KGu_Q4hgnfblnTcpn7K5-13" value="xlog 1" style="rounded=1;whiteSpace=wrap;html=1;" parent="1" vertex="1">
          <mxGeometry x="90" y="574" width="120" height="60" as="geometry"/>
        </mxCell>
        <mxCell id="KGu_Q4hgnfblnTcpn7K5-14" value="xlog 2" style="rounded=1;whiteSpace=wrap;html=1;" parent="1" vertex="1">
          <mxGeometry x="210" y="574" width="120" height="60" as="geometry"/>
        </mxCell>
        <mxCell id="KGu_Q4hgnfblnTcpn7K5-16" value="page 2 (dirty)&lt;br&gt;recorded by xlog2" style="rounded=0;whiteSpace=wrap;html=1;" parent="1" vertex="1">
          <mxGeometry x="210" y="500" width="120" height="40" as="geometry"/>
        </mxCell>
        <mxCell id="KGu_Q4hgnfblnTcpn7K5-18" value="start checkpoint and&amp;nbsp; flushed dirty page 1" style="text;html=1;strokeColor=none;fillColor=none;align=center;verticalAlign=middle;whiteSpace=wrap;rounded=0;" parent="1" vertex="1">
          <mxGeometry x="80" y="450" width="250" height="20" as="geometry"/>
        </mxCell>
        <mxCell id="KGu_Q4hgnfblnTcpn7K5-20" value="page 1 (clean)" style="rounded=0;whiteSpace=wrap;html=1;" parent="1" vertex="1">
          <mxGeometry x="85" y="500" width="120" height="40" as="geometry"/>
        </mxCell>
        <mxCell id="KGu_Q4hgnfblnTcpn7K5-24" value="" style="edgeStyle=orthogonalEdgeStyle;rounded=0;orthogonalLoop=1;jettySize=auto;html=1;" parent="1" source="KGu_Q4hgnfblnTcpn7K5-22" target="KGu_Q4hgnfblnTcpn7K5-23" edge="1">
          <mxGeometry relative="1" as="geometry"/>
        </mxCell>
        <mxCell id="KGu_Q4hgnfblnTcpn7K5-22" value="time1" style="text;html=1;strokeColor=none;fillColor=none;align=center;verticalAlign=middle;whiteSpace=wrap;rounded=0;" parent="1" vertex="1">
          <mxGeometry x="20" y="280" width="40" height="20" as="geometry"/>
        </mxCell>
        <mxCell id="KGu_Q4hgnfblnTcpn7K5-26" value="" style="edgeStyle=orthogonalEdgeStyle;rounded=0;orthogonalLoop=1;jettySize=auto;html=1;" parent="1" source="KGu_Q4hgnfblnTcpn7K5-23" target="KGu_Q4hgnfblnTcpn7K5-25" edge="1">
          <mxGeometry relative="1" as="geometry"/>
        </mxCell>
        <mxCell id="KGu_Q4hgnfblnTcpn7K5-23" value="time2" style="text;html=1;strokeColor=none;fillColor=none;align=center;verticalAlign=middle;whiteSpace=wrap;rounded=0;" parent="1" vertex="1">
          <mxGeometry x="20" y="450" width="40" height="20" as="geometry"/>
        </mxCell>
        <mxCell id="KGu_Q4hgnfblnTcpn7K5-37" value="" style="edgeStyle=orthogonalEdgeStyle;rounded=0;orthogonalLoop=1;jettySize=auto;html=1;" parent="1" source="KGu_Q4hgnfblnTcpn7K5-25" target="KGu_Q4hgnfblnTcpn7K5-36" edge="1">
          <mxGeometry relative="1" as="geometry"/>
        </mxCell>
        <mxCell id="KGu_Q4hgnfblnTcpn7K5-25" value="time3" style="text;html=1;strokeColor=none;fillColor=none;align=center;verticalAlign=middle;whiteSpace=wrap;rounded=0;" parent="1" vertex="1">
          <mxGeometry x="20" y="680" width="40" height="20" as="geometry"/>
        </mxCell>
        <mxCell id="KGu_Q4hgnfblnTcpn7K5-48" value="" style="edgeStyle=orthogonalEdgeStyle;rounded=0;orthogonalLoop=1;jettySize=auto;html=1;" parent="1" source="KGu_Q4hgnfblnTcpn7K5-36" target="KGu_Q4hgnfblnTcpn7K5-47" edge="1">
          <mxGeometry relative="1" as="geometry"/>
        </mxCell>
        <mxCell id="KGu_Q4hgnfblnTcpn7K5-36" value="time4" style="text;html=1;strokeColor=none;fillColor=none;align=center;verticalAlign=middle;whiteSpace=wrap;rounded=0;" parent="1" vertex="1">
          <mxGeometry x="20" y="900" width="40" height="20" as="geometry"/>
        </mxCell>
        <mxCell id="KGu_Q4hgnfblnTcpn7K5-53" value="" style="edgeStyle=orthogonalEdgeStyle;rounded=0;orthogonalLoop=1;jettySize=auto;html=1;" parent="1" source="KGu_Q4hgnfblnTcpn7K5-47" target="KGu_Q4hgnfblnTcpn7K5-52" edge="1">
          <mxGeometry relative="1" as="geometry"/>
        </mxCell>
        <mxCell id="KGu_Q4hgnfblnTcpn7K5-47" value="time5" style="text;html=1;strokeColor=none;fillColor=none;align=center;verticalAlign=middle;whiteSpace=wrap;rounded=0;" parent="1" vertex="1">
          <mxGeometry x="20" y="1130" width="40" height="20" as="geometry"/>
        </mxCell>
        <mxCell id="KGu_Q4hgnfblnTcpn7K5-68" value="" style="edgeStyle=orthogonalEdgeStyle;rounded=0;orthogonalLoop=1;jettySize=auto;html=1;" parent="1" source="KGu_Q4hgnfblnTcpn7K5-52" target="KGu_Q4hgnfblnTcpn7K5-67" edge="1">
          <mxGeometry relative="1" as="geometry"/>
        </mxCell>
        <mxCell id="KGu_Q4hgnfblnTcpn7K5-52" value="time6" style="text;html=1;strokeColor=none;fillColor=none;align=center;verticalAlign=middle;whiteSpace=wrap;rounded=0;" parent="1" vertex="1">
          <mxGeometry x="20" y="1230" width="40" height="20" as="geometry"/>
        </mxCell>
        <mxCell id="KGu_Q4hgnfblnTcpn7K5-67" value="time7" style="text;html=1;strokeColor=none;fillColor=none;align=center;verticalAlign=middle;whiteSpace=wrap;rounded=0;" parent="1" vertex="1">
          <mxGeometry x="20" y="1380" width="40" height="20" as="geometry"/>
        </mxCell>
        <mxCell id="KGu_Q4hgnfblnTcpn7K5-28" value="" style="endArrow=none;html=1;" parent="1" edge="1">
          <mxGeometry width="50" height="50" relative="1" as="geometry">
            <mxPoint x="70" y="790" as="sourcePoint"/>
            <mxPoint x="670" y="790" as="targetPoint"/>
          </mxGeometry>
        </mxCell>
        <mxCell id="KGu_Q4hgnfblnTcpn7K5-29" value="" style="endArrow=none;html=1;" parent="1" edge="1">
          <mxGeometry width="50" height="50" relative="1" as="geometry">
            <mxPoint x="70" y="858" as="sourcePoint"/>
            <mxPoint x="670" y="858" as="targetPoint"/>
          </mxGeometry>
        </mxCell>
        <mxCell id="KGu_Q4hgnfblnTcpn7K5-30" value="xlog 1" style="rounded=1;whiteSpace=wrap;html=1;" parent="1" vertex="1">
          <mxGeometry x="70" y="794" width="120" height="60" as="geometry"/>
        </mxCell>
        <mxCell id="KGu_Q4hgnfblnTcpn7K5-31" value="xlog 2" style="rounded=1;whiteSpace=wrap;html=1;" parent="1" vertex="1">
          <mxGeometry x="190" y="794" width="120" height="60" as="geometry"/>
        </mxCell>
        <mxCell id="KGu_Q4hgnfblnTcpn7K5-32" value="page 2 (dirty)&lt;br&gt;recorded by xlog2" style="rounded=0;whiteSpace=wrap;html=1;" parent="1" vertex="1">
          <mxGeometry x="205" y="720" width="120" height="40" as="geometry"/>
        </mxCell>
        <mxCell id="KGu_Q4hgnfblnTcpn7K5-33" value="page 1 (dirty)&lt;br&gt;recorded by xlog3" style="rounded=0;whiteSpace=wrap;html=1;" parent="1" vertex="1">
          <mxGeometry x="75" y="720" width="120" height="40" as="geometry"/>
        </mxCell>
        <mxCell id="KGu_Q4hgnfblnTcpn7K5-34" value="before the page 2 been flushed, another transaction changed the page1 again and commit in xlog3" style="text;html=1;strokeColor=none;fillColor=none;align=center;verticalAlign=middle;whiteSpace=wrap;rounded=0;" parent="1" vertex="1">
          <mxGeometry x="60" y="680" width="550" height="20" as="geometry"/>
        </mxCell>
        <mxCell id="KGu_Q4hgnfblnTcpn7K5-35" value="xlog 3" style="rounded=1;whiteSpace=wrap;html=1;" parent="1" vertex="1">
          <mxGeometry x="310" y="794" width="120" height="60" as="geometry"/>
        </mxCell>
        <mxCell id="KGu_Q4hgnfblnTcpn7K5-38" value="" style="endArrow=none;html=1;" parent="1" edge="1">
          <mxGeometry width="50" height="50" relative="1" as="geometry">
            <mxPoint x="60" y="1020" as="sourcePoint"/>
            <mxPoint x="660" y="1020" as="targetPoint"/>
          </mxGeometry>
        </mxCell>
        <mxCell id="KGu_Q4hgnfblnTcpn7K5-39" value="" style="endArrow=none;html=1;" parent="1" edge="1">
          <mxGeometry width="50" height="50" relative="1" as="geometry">
            <mxPoint x="60" y="1088" as="sourcePoint"/>
            <mxPoint x="660" y="1088" as="targetPoint"/>
          </mxGeometry>
        </mxCell>
        <mxCell id="KGu_Q4hgnfblnTcpn7K5-40" value="xlog 1" style="rounded=1;whiteSpace=wrap;html=1;" parent="1" vertex="1">
          <mxGeometry x="60" y="1024" width="120" height="60" as="geometry"/>
        </mxCell>
        <mxCell id="KGu_Q4hgnfblnTcpn7K5-41" value="xlog 2" style="rounded=1;whiteSpace=wrap;html=1;" parent="1" vertex="1">
          <mxGeometry x="180" y="1024" width="120" height="60" as="geometry"/>
        </mxCell>
        <mxCell id="KGu_Q4hgnfblnTcpn7K5-42" value="page 2 (clean)" style="rounded=0;whiteSpace=wrap;html=1;" parent="1" vertex="1">
          <mxGeometry x="195" y="950" width="120" height="40" as="geometry"/>
        </mxCell>
        <mxCell id="KGu_Q4hgnfblnTcpn7K5-43" value="page 1 (dirty)&lt;br&gt;recorded by xlog3" style="rounded=0;whiteSpace=wrap;html=1;" parent="1" vertex="1">
          <mxGeometry x="65" y="950" width="120" height="40" as="geometry"/>
        </mxCell>
        <mxCell id="KGu_Q4hgnfblnTcpn7K5-44" value="xlog 3" style="rounded=1;whiteSpace=wrap;html=1;" parent="1" vertex="1">
          <mxGeometry x="300" y="1024" width="120" height="60" as="geometry"/>
        </mxCell>
        <mxCell id="KGu_Q4hgnfblnTcpn7K5-45" value="the page 2 been flushed and&amp;nbsp; the checkpoint xlog4 has been flushed" style="text;html=1;strokeColor=none;fillColor=none;align=center;verticalAlign=middle;whiteSpace=wrap;rounded=0;" parent="1" vertex="1">
          <mxGeometry x="50" y="900" width="400" height="20" as="geometry"/>
        </mxCell>
        <mxCell id="KGu_Q4hgnfblnTcpn7K5-46" value="xlog 4&lt;br&gt;(redo point is xlog2)" style="rounded=1;whiteSpace=wrap;html=1;" parent="1" vertex="1">
          <mxGeometry x="420" y="1024" width="120" height="60" as="geometry"/>
        </mxCell>
        <mxCell id="KGu_Q4hgnfblnTcpn7K5-50" value="databse crashed" style="text;html=1;strokeColor=none;fillColor=none;align=center;verticalAlign=middle;whiteSpace=wrap;rounded=0;" parent="1" vertex="1">
          <mxGeometry x="85" y="1130" width="100" height="20" as="geometry"/>
        </mxCell>
        <mxCell id="KGu_Q4hgnfblnTcpn7K5-51" value="" style="verticalLabelPosition=bottom;verticalAlign=top;html=1;shape=mxgraph.basic.flash" parent="1" vertex="1">
          <mxGeometry x="65" y="1130" width="20" height="24" as="geometry"/>
        </mxCell>
        <mxCell id="KGu_Q4hgnfblnTcpn7K5-55" value="redo point is xlog2" style="rounded=0;whiteSpace=wrap;html=1;" parent="1" vertex="1">
          <mxGeometry x="330" y="455" width="120" height="10" as="geometry"/>
        </mxCell>
        <mxCell id="KGu_Q4hgnfblnTcpn7K5-56" value="" style="endArrow=none;html=1;" parent="1" edge="1">
          <mxGeometry width="50" height="50" relative="1" as="geometry">
            <mxPoint x="60" y="1260" as="sourcePoint"/>
            <mxPoint x="660" y="1260" as="targetPoint"/>
          </mxGeometry>
        </mxCell>
        <mxCell id="KGu_Q4hgnfblnTcpn7K5-57" value="" style="endArrow=none;html=1;" parent="1" edge="1">
          <mxGeometry width="50" height="50" relative="1" as="geometry">
            <mxPoint x="60" y="1328" as="sourcePoint"/>
            <mxPoint x="660" y="1328" as="targetPoint"/>
          </mxGeometry>
        </mxCell>
        <mxCell id="KGu_Q4hgnfblnTcpn7K5-58" value="xlog 1" style="rounded=1;whiteSpace=wrap;html=1;" parent="1" vertex="1">
          <mxGeometry x="60" y="1264" width="120" height="60" as="geometry"/>
        </mxCell>
        <mxCell id="KGu_Q4hgnfblnTcpn7K5-59" value="xlog 2" style="rounded=1;whiteSpace=wrap;html=1;" parent="1" vertex="1">
          <mxGeometry x="180" y="1264" width="120" height="60" as="geometry"/>
        </mxCell>
        <mxCell id="KGu_Q4hgnfblnTcpn7K5-60" value="xlog 3" style="rounded=1;whiteSpace=wrap;html=1;" parent="1" vertex="1">
          <mxGeometry x="300" y="1264" width="120" height="60" as="geometry"/>
        </mxCell>
        <mxCell id="KGu_Q4hgnfblnTcpn7K5-61" value="xlog 4" style="rounded=1;whiteSpace=wrap;html=1;" parent="1" vertex="1">
          <mxGeometry x="420" y="1264" width="120" height="60" as="geometry"/>
        </mxCell>
        <mxCell id="KGu_Q4hgnfblnTcpn7K5-62" value="start recovey , read the checkpoint xlog4 and get the redo point xlog2&amp;nbsp; and replay from it&amp;nbsp;&amp;nbsp;" style="text;html=1;strokeColor=none;fillColor=none;align=left;verticalAlign=middle;whiteSpace=wrap;rounded=0;" parent="1" vertex="1">
          <mxGeometry x="65" y="1230" width="490" height="20" as="geometry"/>
        </mxCell>
        <mxCell id="KGu_Q4hgnfblnTcpn7K5-65" value="so the data about the xlog3 will not be lost&amp;nbsp;" style="text;html=1;strokeColor=none;fillColor=none;align=center;verticalAlign=middle;whiteSpace=wrap;rounded=0;" parent="1" vertex="1">
          <mxGeometry x="60" y="1380" width="240" height="20" as="geometry"/>
        </mxCell>
      </root>
    </mxGraphModel>
  </diagram>
</mxfile>
